<?xml version="1.0" encoding="utf-8"?>
<!-- Generator: Adobe Illustrator 24.3.0, SVG Export Plug-In . SVG Version: 6.00 Build 0)  -->
<svg version="1.1" id="Layer_1" xmlns="http://www.w3.org/2000/svg" xmlns:xlink="http://www.w3.org/1999/xlink" x="0px" y="0px"
	 viewBox="0 0 1400 1400" style="enable-background:new 0 0 1400 1400;" xml:space="preserve">
<style type="text/css">
	.st0{fill:#CBA561;}
</style>
<g>
	<g>
		<path class="st0" d="M183.72,965.78c1.16,0,1.97-0.88,2.41-2.63c0.59-2.35,1.83-4.91,3.73-7.69c2.64-3.96,9.74-6.07,21.31-6.38
			l32.74-0.87v90.07c0,24.75-0.37,40.35-1.1,46.79c-0.89,7.33-3.01,11.36-6.39,12.09c-2.19,0.15-4.39,0.36-6.57,0.66
			c-3.23,0.3-4.84,0.95-4.84,1.97c0,1.46,1.46,2.2,4.39,2.2c3.23,0,8.31-0.11,15.27-0.33c6.96-0.22,11.1-0.33,12.41-0.33
			c1.33,0,6,0.11,14.07,0.33c8.04,0.22,14.86,0.33,20.43,0.33c2.77,0,4.17-0.74,4.17-2.2c0-1.17-1.19-1.76-3.51-1.76
			c-3.23,0-6.97-0.29-11.21-0.87c-4.83-0.73-7.69-4.69-8.56-11.86c-0.74-6.45-1.1-22.11-1.1-47.02v-90.07l27.69,0.66
			c16.54,0.44,25.19,4.54,25.91,12.3l0.21,2.41c0.3,2.93,1.11,4.39,2.43,4.39c1.01,0,1.61-1.09,1.76-3.27
			c0.14-2.19,0.33-6.63,0.54-13.31c0.21-6.7,0.34-10.77,0.34-12.22c0-3-0.58-4.52-1.72-4.57c0,0.06-1.99,0.38-5.98,0.98
			c-4.4,0.66-9.44,0.99-15.16,0.99h-87c-6.74,0-14.06-0.37-21.97-1.1c-2.06-0.14-4.03-0.62-5.93-1.43
			c-1.91-0.81-3.09-1.21-3.51-1.21c-1.03,0-1.9,1.4-2.64,4.17c-3.07,12.89-4.6,21.31-4.6,25.26
			C181.75,964.61,182.41,965.78,183.72,965.78z"/>
		<path class="st0" d="M424.72,1089.9c11.13,10.11,27.38,15.17,48.77,15.17c18.16,0,33.38-5.28,45.7-15.82
			c8.34-7.17,14.13-17.13,17.34-29.87c2.34-9.23,3.53-21.31,3.53-36.25v-23.51c0-26.22,0.14-41.75,0.43-46.57
			c0.44-7.47,3.16-11.64,8.13-12.52c2.5-0.44,4.61-0.66,6.39-0.66c2.63,0,3.94-0.66,3.94-1.98c0-1.31-1.53-1.97-4.61-1.97
			c-3.37,0-8.27,0.11-14.71,0.33c-6.44,0.21-9.89,0.32-10.33,0.32c-10.4-0.43-18.81-0.66-25.26-0.66c-3.09,0-4.61,0.66-4.61,1.98
			c0,1.32,1.24,1.98,3.73,1.98c3.21,0,5.86,0.23,7.91,0.66c5.86,1.32,9,5.51,9.44,12.55c0.29,4.84,0.44,20.39,0.44,46.63v27.51
			c0,14.07-0.59,24.49-1.76,31.24c-1.91,10.12-5.57,17.9-10.99,23.31c-7.91,7.93-18.01,11.88-30.31,11.88
			c-10.99,0-20.16-3.01-27.47-9.02c-11.43-9.38-17.14-27.42-17.14-54.11V999.7c0-26.25,0.16-41.79,0.46-46.63
			c0.43-7.48,3.14-11.66,8.13-12.55c2.47-0.43,4.6-0.66,6.37-0.66c2.33,0,3.5-0.66,3.5-1.98c0-1.32-1.6-1.98-4.83-1.98
			c-2.79,0-7.57,0.11-14.39,0.33c-6.81,0.21-11.01,0.32-12.63,0.32c-1.77,0-6.49-0.11-14.17-0.32c-7.68-0.22-13.66-0.33-17.9-0.33
			c-3.23,0-4.84,0.66-4.84,1.97c0,1.32,1.24,1.98,3.73,1.98c3.66,0,6.51,0.22,8.57,0.66c5.86,1.32,9.01,5.49,9.44,12.52
			c0.3,4.83,0.44,20.36,0.44,46.57v32.07C405.16,1058.79,411.68,1078.19,424.72,1089.9z"/>
		<path class="st0" d="M644.4,1085.07c-0.87,7.33-3,11.36-6.37,12.09c-2.19,0.15-4.39,0.36-6.59,0.66c-3.23,0.3-4.84,0.95-4.84,1.97
			c0,1.46,1.47,2.2,4.4,2.2c3.23,0,8.31-0.11,15.27-0.33c6.96-0.22,11.1-0.33,12.41-0.33c4.83,0,13.77,0.22,26.8,0.66
			c13.03,0.44,25.41,0.66,37.13,0.66c4.69,0,7.54-0.15,8.57-0.44c2.63-0.58,4.4-2.42,5.27-5.49c2.2-8.05,3.3-16.47,3.3-25.26
			c0-2.49-0.59-3.74-1.76-3.74c-1.31,0-2.13,1.1-2.41,3.3c-0.6,5.27-2.5,9.66-5.71,13.18c-3.81,4.1-12.39,6.16-25.71,6.16
			c-14.06,0-22.91-1.62-26.59-4.84c-2.04-1.76-3.36-6.6-3.94-14.5c-0.44-5.28-0.67-16.19-0.67-32.74v-38.67
			c0-26.22,0.16-41.75,0.44-46.57c0.44-7.47,3.16-11.64,8.14-12.52c2.49-0.44,5.33-0.66,8.56-0.66c2.64,0,3.96-0.66,3.96-1.98
			c0-1.31-1.54-1.97-4.61-1.97c-3.07,0-8.46,0.11-16.14,0.33c-7.7,0.21-12.27,0.32-13.74,0.32c-1.6,0-6.07-0.11-13.4-0.32
			c-7.31-0.22-12.89-0.33-16.69-0.33c-3.23,0-4.83,0.66-4.83,1.97c0,1.32,1.23,1.98,3.73,1.98c5.57,0,9.51,0.74,11.86,2.2
			c2.93,1.9,4.53,5.57,4.83,10.99c0.3,4.83,0.44,20.36,0.44,46.57v38.67C645.5,1063.77,645.14,1079.36,644.4,1085.07z"/>
		<path class="st0" d="M832.68,1089.9c11.13,10.11,27.39,15.17,48.77,15.17c18.16,0,33.39-5.28,45.7-15.82
			c8.34-7.17,14.13-17.13,17.34-29.87c2.34-9.23,3.53-21.31,3.53-36.25v-23.51c0-26.22,0.14-41.75,0.43-46.57
			c0.44-7.47,3.16-11.64,8.13-12.52c2.49-0.44,4.61-0.66,6.37-0.66c2.64,0,3.96-0.66,3.96-1.98c0-1.31-1.53-1.97-4.61-1.97
			c-3.37,0-8.27,0.11-14.71,0.33c-6.44,0.21-9.89,0.32-10.33,0.32c-10.4-0.43-18.83-0.66-25.26-0.66c-3.09,0-4.61,0.66-4.61,1.98
			c0,1.32,1.23,1.98,3.74,1.98c3.2,0,5.84,0.23,7.9,0.66c5.86,1.32,9,5.51,9.44,12.55c0.29,4.84,0.44,20.39,0.44,46.63v27.51
			c0,14.07-0.59,24.49-1.76,31.24c-1.91,10.12-5.57,17.9-10.99,23.31c-7.9,7.93-18.03,11.88-30.33,11.88
			c-10.99,0-20.14-3.01-27.46-9.02c-11.43-9.38-17.13-27.42-17.13-54.11V999.7c0-26.25,0.14-41.79,0.43-46.63
			c0.44-7.48,3.16-11.66,8.13-12.55c2.49-0.43,4.61-0.66,6.37-0.66c2.34,0,3.51-0.66,3.51-1.98c0-1.32-1.6-1.98-4.83-1.98
			c-2.79,0-7.57,0.11-14.39,0.33c-6.81,0.21-11.03,0.32-12.64,0.32c-1.76,0-6.47-0.11-14.17-0.32c-7.69-0.22-13.64-0.33-17.9-0.33
			c-3.21,0-4.83,0.66-4.83,1.97c0,1.32,1.24,1.98,3.74,1.98c3.64,0,6.5,0.22,8.56,0.66c5.86,1.32,9.01,5.49,9.44,12.52
			c0.3,4.83,0.44,20.36,0.44,46.57v32.07C813.13,1058.79,819.64,1078.19,832.68,1089.9z"/>
		<path class="st0" d="M1152.99,1073.22c-22.84-56.1-41.01-101.13-54.48-135.11c-2.06-4.69-3.89-7.03-5.5-7.03
			c-1.74,0-3.8,2.93-6.14,8.79l-55.14,137.97c-2.5,6.3-4.91,10.84-7.26,13.62c-2.93,3.52-6.74,5.57-11.41,6.15
			c-2.2,0.29-4.47,0.44-6.83,0.44c-1.74,0-2.63,0.59-2.63,1.76c0,1.46,1.4,2.2,4.17,2.2c4.54,0,13.19-0.22,25.93-0.66
			c2.2,0,6.04,0.11,11.53,0.33c5.5,0.22,9.41,0.33,11.76,0.33c2.5,0,3.73-0.74,3.73-2.2c0-1.17-1.09-1.76-3.29-1.76h-3.3
			c-5.86,0-8.79-2.27-8.79-6.81c0-3.07,1.1-7.54,3.29-13.4l11.87-31.41c0.44-1.17,1.11-1.76,1.99-1.76h48.98
			c1.03,0,1.76,0.51,2.2,1.54l17.57,46.57c1.03,2.63,0.37,4.32-1.97,5.05c-2.06,0.15-3.07,0.8-3.07,1.97c0,1.03,2.19,1.61,6.59,1.76
			c9.51,0.29,23.36,0.44,41.51,0.44c3.81,0,6.44-0.15,7.93-0.44c1.44-0.3,2.19-0.88,2.19-1.76c0-1.17-0.96-1.76-2.86-1.76
			c-3.51,0-6.59-0.29-9.23-0.87C1165.58,1095.7,1159.13,1087.71,1152.99,1073.22z M1107.29,1033.67h-40.43
			c-0.87,0-1.17-0.51-0.87-1.54l20.21-54.05c0.29-1.32,0.73-1.97,1.31-1.97c0.43,0,0.81,0.66,1.1,1.97l19.77,54.27
			C1108.68,1033.23,1108.32,1033.67,1107.29,1033.67z"/>
		<path class="st0" d="M1181.95,1140.51H184.19c-1.36,0-2.44,1.1-2.44,2.46c0,1.36,1.09,2.46,2.44,2.46h997.75
			c1.36,0,2.46-1.09,2.46-2.46C1184.41,1141.61,1183.31,1140.51,1181.95,1140.51z"/>
		<path class="st0" d="M274,1225.36c-0.86,0-1.86-0.08-2.99-0.23c-1.29-0.2-2.05-1.25-2.29-3.17c-0.2-1.72-0.29-5.9-0.29-12.55
			v-10.32c0-7,0.04-11.14,0.12-12.43c0.12-1.99,0.84-3.11,2.17-3.34c0.66-0.12,1.23-0.18,1.7-0.18c0.7,0,1.06-0.18,1.06-0.53
			c0-0.35-0.41-0.53-1.23-0.53c-0.82,0-2.16,0.03-4.02,0.09c-1.86,0.06-2.98,0.09-3.37,0.09c-0.39,0-1.6-0.03-3.64-0.09
			c-2.03-0.06-3.64-0.09-4.81-0.09c-0.82,0-1.23,0.18-1.23,0.53c0,0.35,0.33,0.53,1,0.53c0.98,0,1.74,0.06,2.29,0.18
			c1.56,0.35,2.4,1.47,2.52,3.34c0.08,1.29,0.12,5.43,0.12,12.43v1.23c0,0.27-0.12,0.41-0.35,0.41h-22.4
			c-0.23,0-0.35-0.14-0.35-0.41v-1.23c0-7,0.04-11.14,0.12-12.43c0.12-1.99,0.84-3.11,2.17-3.34c0.66-0.12,1.23-0.18,1.7-0.18
			c0.7,0,1.06-0.18,1.06-0.53c0-0.35-0.41-0.53-1.23-0.53c-0.82,0-2.16,0.03-4.02,0.09c-1.86,0.06-2.98,0.09-3.37,0.09
			c-0.39,0-1.6-0.03-3.64-0.09c-2.03-0.06-3.64-0.09-4.81-0.09c-0.82,0-1.23,0.18-1.23,0.53c0,0.35,0.33,0.53,1,0.53
			c0.98,0,1.74,0.06,2.29,0.18c1.56,0.35,2.4,1.47,2.52,3.34c0.08,1.29,0.12,5.43,0.12,12.43v10.32c0,6.8-0.1,10.96-0.29,12.49
			c-0.23,1.96-0.8,3.03-1.7,3.23c-0.59,0.04-1.17,0.1-1.76,0.18c-0.86,0.08-1.29,0.25-1.29,0.53c0,0.39,0.39,0.59,1.17,0.59
			c0.86,0,2.22-0.03,4.08-0.09c1.86-0.06,2.96-0.09,3.31-0.09c0.35,0,1.6,0.03,3.75,0.09c2.15,0.06,3.95,0.09,5.39,0.09
			c0.78,0,1.17-0.2,1.17-0.59c0-0.31-0.31-0.47-0.94-0.47c-0.86,0-1.86-0.08-2.99-0.23c-1.29-0.2-2.05-1.25-2.29-3.17
			c-0.2-1.72-0.29-5.9-0.29-12.55v-5.16c0-0.23,0.12-0.35,0.35-0.35h22.4c0.23,0,0.35,0.12,0.35,0.35v5.16
			c0,6.8-0.1,10.96-0.29,12.49c-0.23,1.96-0.8,3.03-1.7,3.23c-0.59,0.04-1.17,0.1-1.76,0.18c-0.86,0.08-1.29,0.25-1.29,0.53
			c0,0.39,0.41,0.59,1.23,0.59c0.86,0,2.21-0.03,4.05-0.09c1.84-0.06,2.93-0.09,3.28-0.09c0.35,0,1.6,0.03,3.75,0.09
			c2.15,0.06,3.95,0.09,5.39,0.09c0.78,0,1.17-0.2,1.17-0.59C274.94,1225.52,274.63,1225.36,274,1225.36z"/>
		<path class="st0" d="M357.79,1217.51c-0.31,0-0.53,0.29-0.65,0.88c-0.39,2.27-1.28,3.71-2.65,4.34c-1.02,0.47-2.86,0.7-5.53,0.7
			c-2.94,0-4.84-0.3-5.68-0.91c-0.84-0.61-1.3-1.94-1.38-4.02v-13.72c0-0.39,0.12-0.59,0.35-0.59c4.47,0,7.26,0.06,8.36,0.18
			c1.88,0.2,2.98,0.96,3.3,2.29c0.16,0.94,0.24,1.61,0.24,2.02c0,0.41,0.18,0.62,0.53,0.62c0.35,0,0.53-0.37,0.53-1.11
			c0-0.39,0.08-1.7,0.24-3.93c0.08-1.17,0.18-2.21,0.29-3.11c0.12-0.74,0.18-1.13,0.18-1.17c0-0.31-0.14-0.47-0.41-0.47
			c-0.16,0-0.47,0.25-0.94,0.76c-0.27,0.31-0.71,0.55-1.3,0.7c-0.35,0.08-0.86,0.14-1.53,0.18c-0.9,0.08-4.04,0.12-9.42,0.12
			c-0.27,0-0.41-0.21-0.41-0.64v-14.83c0-0.39,0.14-0.59,0.41-0.59c4.24,0,7.02,0.08,8.36,0.23c2.16,0.27,3.47,0.98,3.94,2.11
			c0.12,0.31,0.2,0.67,0.24,1.06c0.04,0.39,0.09,0.8,0.15,1.23c0.06,0.43,0.23,0.64,0.5,0.64c0.31,0,0.51-0.21,0.59-0.64
			c0.16-1.52,0.26-2.81,0.32-3.87c0.06-1.06,0.15-1.97,0.26-2.76c0.12-0.66,0.18-1.02,0.18-1.06c0-0.35-0.12-0.53-0.35-0.53
			c0.04,0-0.27,0.08-0.94,0.23c-0.67,0.16-1.51,0.27-2.52,0.35c-0.51,0.04-5.39,0.06-14.66,0.06c-0.43,0-1.65-0.03-3.66-0.09
			c-2.01-0.06-3.61-0.09-4.78-0.09c-0.86,0-1.29,0.18-1.29,0.53c0,0.35,0.33,0.53,1,0.53c0.98,0,1.74,0.06,2.29,0.18
			c1.56,0.35,2.4,1.47,2.52,3.34c0.08,1.29,0.12,5.43,0.12,12.43v10.32c0,6.8-0.1,10.96-0.29,12.49c-0.23,1.96-0.8,3.03-1.7,3.23
			c-0.59,0.04-1.17,0.1-1.76,0.18c-0.86,0.08-1.29,0.25-1.29,0.53c0,0.39,0.39,0.59,1.17,0.59c0.86,0,2.22-0.03,4.08-0.09
			c1.86-0.06,2.96-0.09,3.31-0.09c0.7,0,2.74,0.06,6.1,0.18c3.36,0.12,6.74,0.18,10.14,0.18c1.21,0,1.99-0.08,2.35-0.23
			c0.35-0.16,0.62-0.59,0.82-1.29c0.51-1.95,0.76-4.12,0.76-6.51C358.26,1217.86,358.11,1217.51,357.79,1217.51z"/>
		<path class="st0" d="M452.72,1225.36c-0.94,0-1.76-0.08-2.46-0.23c-1.8-0.39-3.52-2.52-5.16-6.39
			c-6.1-14.97-10.95-26.99-14.54-36.06c-0.55-1.25-1.04-1.88-1.47-1.88c-0.47,0-1.02,0.78-1.64,2.34l-14.72,36.82
			c-0.67,1.68-1.31,2.89-1.94,3.64c-0.78,0.94-1.8,1.49-3.05,1.64c-0.59,0.08-1.19,0.12-1.82,0.12c-0.47,0-0.7,0.16-0.7,0.47
			c0,0.39,0.37,0.59,1.11,0.59c1.21,0,3.52-0.06,6.92-0.18c0.59,0,1.61,0.03,3.08,0.09c1.47,0.06,2.51,0.09,3.14,0.09
			c0.66,0,1-0.2,1-0.59c0-0.31-0.29-0.47-0.88-0.47h-0.88c-1.56,0-2.35-0.61-2.35-1.82c0-0.82,0.29-2.01,0.88-3.58l3.17-8.39
			c0.12-0.31,0.29-0.47,0.53-0.47h13.08c0.27,0,0.47,0.14,0.59,0.41l4.69,12.43c0.27,0.7,0.1,1.15-0.53,1.35
			c-0.55,0.04-0.82,0.21-0.82,0.53c0,0.27,0.59,0.43,1.76,0.47c2.54,0.08,6.23,0.12,11.08,0.12c1.02,0,1.72-0.04,2.11-0.12
			c0.39-0.08,0.59-0.23,0.59-0.47C453.49,1225.52,453.23,1225.36,452.72,1225.36z M432.9,1208.19h-10.79
			c-0.23,0-0.31-0.14-0.23-0.41l5.39-14.42c0.08-0.35,0.2-0.53,0.35-0.53c0.12,0,0.21,0.18,0.29,0.53l5.28,14.48
			C433.28,1208.07,433.18,1208.19,432.9,1208.19z"/>
		<path class="st0" d="M531.18,1217.27c-0.35,0-0.57,0.29-0.64,0.88c-0.16,1.41-0.67,2.58-1.52,3.52c-1.02,1.09-3.3,1.64-6.86,1.64
			c-3.75,0-6.12-0.43-7.1-1.29c-0.55-0.47-0.9-1.76-1.06-3.87c-0.12-1.41-0.18-4.32-0.18-8.74v-10.32c0-7,0.04-11.14,0.12-12.43
			c0.12-1.99,0.84-3.11,2.17-3.34c0.66-0.12,1.43-0.18,2.29-0.18c0.7,0,1.06-0.18,1.06-0.53c0-0.35-0.41-0.53-1.23-0.53
			c-0.82,0-2.26,0.03-4.31,0.09c-2.05,0.06-3.27,0.09-3.66,0.09c-0.43,0-1.62-0.03-3.58-0.09c-1.96-0.06-3.44-0.09-4.46-0.09
			c-0.86,0-1.29,0.18-1.29,0.53c0,0.35,0.33,0.53,1,0.53c1.49,0,2.54,0.2,3.17,0.59c0.78,0.51,1.21,1.49,1.29,2.93
			c0.08,1.29,0.12,5.43,0.12,12.43v10.32c0,6.8-0.1,10.96-0.29,12.49c-0.23,1.96-0.8,3.03-1.7,3.23c-0.59,0.04-1.17,0.1-1.76,0.18
			c-0.86,0.08-1.29,0.25-1.29,0.53c0,0.39,0.39,0.59,1.17,0.59c0.86,0,2.22-0.03,4.08-0.09c1.86-0.06,2.96-0.09,3.31-0.09
			c1.29,0,3.67,0.06,7.15,0.18c3.48,0.12,6.78,0.18,9.91,0.18c1.25,0,2.01-0.04,2.29-0.12c0.7-0.16,1.17-0.65,1.41-1.47
			c0.59-2.15,0.88-4.4,0.88-6.74C531.65,1217.61,531.49,1217.27,531.18,1217.27z"/>
		<path class="st0" d="M619.32,1181.75c-0.04,0.02-0.57,0.11-1.6,0.26c-1.17,0.18-2.52,0.26-4.05,0.26h-23.22
			c-1.8,0-3.75-0.1-5.86-0.29c-0.55-0.04-1.08-0.17-1.58-0.38c-0.51-0.21-0.82-0.32-0.94-0.32c-0.27,0-0.51,0.37-0.7,1.11
			c-0.82,3.44-1.23,5.69-1.23,6.74c0,0.63,0.18,0.94,0.53,0.94c0.31,0,0.53-0.23,0.64-0.7c0.16-0.62,0.49-1.31,1-2.05
			c0.7-1.06,2.6-1.62,5.69-1.7l8.74-0.24v24.04c0,6.61-0.1,10.77-0.29,12.49c-0.23,1.96-0.8,3.03-1.7,3.23
			c-0.59,0.04-1.17,0.1-1.76,0.18c-0.86,0.08-1.29,0.25-1.29,0.53c0,0.39,0.39,0.59,1.17,0.59c0.86,0,2.22-0.03,4.08-0.09
			c1.86-0.06,2.96-0.09,3.31-0.09c0.35,0,1.6,0.03,3.75,0.09c2.15,0.06,3.97,0.09,5.45,0.09c0.74,0,1.11-0.2,1.11-0.59
			c0-0.31-0.31-0.47-0.94-0.47c-0.86,0-1.86-0.08-2.99-0.23c-1.29-0.2-2.05-1.25-2.29-3.17c-0.2-1.72-0.29-5.9-0.29-12.55v-24.04
			l7.39,0.18c4.42,0.12,6.72,1.21,6.92,3.28l0.06,0.64c0.08,0.78,0.29,1.17,0.65,1.17c0.27,0,0.43-0.29,0.47-0.87
			c0.04-0.58,0.09-1.77,0.15-3.55c0.06-1.79,0.09-2.87,0.09-3.26C619.77,1182.16,619.62,1181.76,619.32,1181.75z"/>
		<path class="st0" d="M720.74,1225.36c-0.86,0-1.86-0.08-2.99-0.23c-1.29-0.2-2.05-1.25-2.29-3.17c-0.2-1.72-0.29-5.9-0.29-12.55
			v-10.32c0-7,0.04-11.14,0.12-12.43c0.12-1.99,0.84-3.11,2.17-3.34c0.66-0.12,1.23-0.18,1.7-0.18c0.7,0,1.06-0.18,1.06-0.53
			c0-0.35-0.41-0.53-1.23-0.53c-0.82,0-2.16,0.03-4.02,0.09c-1.86,0.06-2.98,0.09-3.37,0.09c-0.39,0-1.6-0.03-3.64-0.09
			c-2.03-0.06-3.64-0.09-4.81-0.09c-0.82,0-1.23,0.18-1.23,0.53c0,0.35,0.33,0.53,1,0.53c0.98,0,1.74,0.06,2.29,0.18
			c1.56,0.35,2.4,1.47,2.52,3.34c0.08,1.29,0.12,5.43,0.12,12.43v1.23c0,0.27-0.12,0.41-0.35,0.41h-22.4
			c-0.23,0-0.35-0.14-0.35-0.41v-1.23c0-7,0.04-11.14,0.12-12.43c0.12-1.99,0.84-3.11,2.17-3.34c0.66-0.12,1.23-0.18,1.7-0.18
			c0.7,0,1.06-0.18,1.06-0.53c0-0.35-0.41-0.53-1.23-0.53s-2.16,0.03-4.02,0.09c-1.86,0.06-2.98,0.09-3.37,0.09
			c-0.39,0-1.6-0.03-3.64-0.09c-2.03-0.06-3.64-0.09-4.81-0.09c-0.82,0-1.23,0.18-1.23,0.53c0,0.35,0.33,0.53,1,0.53
			c0.98,0,1.74,0.06,2.29,0.18c1.56,0.35,2.4,1.47,2.52,3.34c0.08,1.29,0.12,5.43,0.12,12.43v10.32c0,6.8-0.1,10.96-0.29,12.49
			c-0.23,1.96-0.8,3.03-1.7,3.23c-0.59,0.04-1.17,0.1-1.76,0.18c-0.86,0.08-1.29,0.25-1.29,0.53c0,0.39,0.39,0.59,1.17,0.59
			c0.86,0,2.22-0.03,4.08-0.09c1.86-0.06,2.96-0.09,3.31-0.09c0.35,0,1.6,0.03,3.75,0.09c2.15,0.06,3.95,0.09,5.39,0.09
			c0.78,0,1.17-0.2,1.17-0.59c0-0.31-0.31-0.47-0.94-0.47c-0.86,0-1.86-0.08-2.99-0.23c-1.29-0.2-2.05-1.25-2.29-3.17
			c-0.2-1.72-0.29-5.9-0.29-12.55v-5.16c0-0.23,0.12-0.35,0.35-0.35h22.4c0.23,0,0.35,0.12,0.35,0.35v5.16
			c0,6.8-0.1,10.96-0.29,12.49c-0.23,1.96-0.8,3.03-1.7,3.23c-0.59,0.04-1.17,0.1-1.76,0.18c-0.86,0.08-1.29,0.25-1.29,0.53
			c0,0.39,0.41,0.59,1.23,0.59c0.86,0,2.21-0.03,4.05-0.09c1.84-0.06,2.93-0.09,3.28-0.09c0.35,0,1.6,0.03,3.75,0.09
			c2.15,0.06,3.95,0.09,5.39,0.09c0.78,0,1.17-0.2,1.17-0.59C721.68,1225.52,721.37,1225.36,720.74,1225.36z"/>
		<path class="st0" d="M864.1,1184.14c2.62,0,5.04,0.35,7.27,1.06c2.07,0.67,3.62,1.52,4.63,2.58c1.49,1.56,2.25,3.36,2.29,5.39
			c0,0.86,0.2,1.29,0.59,1.29c0.39,0,0.62-0.45,0.7-1.35c0.1-2.5,0.17-4.61,0.22-6.33c0.05-0.78,0.12-1.52,0.22-2.23
			c0.1-0.55,0.15-0.88,0.15-1c0-0.43-0.29-0.66-0.88-0.7c-2.55-0.39-4.51-0.72-5.88-1c-2.98-0.39-5.82-0.59-8.53-0.59
			c-7.84,0-14.04,2.08-18.61,6.24c-4.57,4.16-6.85,9.51-6.85,16.04c0,7.31,2.43,13.09,7.3,17.33c4.87,4.24,11.56,6.36,20.08,6.36
			c4.81,0,8.33-0.45,10.55-1.35c0.78-0.31,1.3-0.9,1.55-1.76c0.25-0.86,0.54-2.31,0.85-4.34c0.27-1.84,0.41-2.97,0.41-3.4
			c0-0.59-0.18-0.88-0.53-0.88c-0.35,0-0.61,0.39-0.76,1.17c-0.27,1.41-0.94,2.7-1.99,3.87c-1.21,1.41-2.85,2.35-4.93,2.81
			c-1.37,0.31-3.3,0.47-5.8,0.47c-4.5,0-8.56-1.74-12.2-5.22c-4.18-3.99-6.27-9.21-6.27-15.66c0-6.84,1.8-11.9,5.39-15.19
			C855.74,1185.36,859.41,1184.14,864.1,1184.14z"/>
		<path class="st0" d="M964.31,1217.27c-0.35,0-0.57,0.29-0.65,0.88c-0.16,1.41-0.66,2.58-1.52,3.52c-1.02,1.09-3.3,1.64-6.86,1.64
			c-3.75,0-6.12-0.43-7.09-1.29c-0.55-0.47-0.9-1.76-1.06-3.87c-0.12-1.41-0.18-4.32-0.18-8.74v-10.32c0-7,0.04-11.14,0.12-12.43
			c0.12-1.99,0.84-3.11,2.17-3.34c0.66-0.12,1.43-0.18,2.29-0.18c0.7,0,1.06-0.18,1.06-0.53c0-0.35-0.41-0.53-1.23-0.53
			c-0.82,0-2.26,0.03-4.31,0.09c-2.05,0.06-3.27,0.09-3.66,0.09c-0.43,0-1.62-0.03-3.58-0.09c-1.96-0.06-3.44-0.09-4.46-0.09
			c-0.86,0-1.29,0.18-1.29,0.53c0,0.35,0.33,0.53,1,0.53c1.48,0,2.54,0.2,3.17,0.59c0.78,0.51,1.21,1.49,1.29,2.93
			c0.08,1.29,0.12,5.43,0.12,12.43v10.32c0,6.8-0.1,10.96-0.29,12.49c-0.23,1.96-0.8,3.03-1.7,3.23c-0.59,0.04-1.17,0.1-1.76,0.18
			c-0.86,0.08-1.29,0.25-1.29,0.53c0,0.39,0.39,0.59,1.17,0.59c0.86,0,2.22-0.03,4.08-0.09c1.86-0.06,2.96-0.09,3.31-0.09
			c1.29,0,3.67,0.06,7.15,0.18c3.48,0.12,6.78,0.18,9.91,0.18c1.25,0,2.01-0.04,2.29-0.12c0.7-0.16,1.17-0.65,1.41-1.47
			c0.59-2.15,0.88-4.4,0.88-6.74C964.78,1217.61,964.62,1217.27,964.31,1217.27z"/>
		<path class="st0" d="M1059.36,1182.09c-0.9,0-2.21,0.03-3.93,0.09c-1.72,0.06-2.64,0.09-2.76,0.09c-2.78-0.12-5.02-0.18-6.74-0.18
			c-0.82,0-1.23,0.18-1.23,0.53c0,0.35,0.33,0.53,1,0.53c0.86,0,1.56,0.06,2.11,0.18c1.56,0.35,2.4,1.47,2.52,3.35
			c0.08,1.29,0.12,5.44,0.12,12.45v7.34c0,3.76-0.16,6.54-0.47,8.34c-0.51,2.7-1.49,4.78-2.93,6.22c-2.11,2.11-4.81,3.17-8.09,3.17
			c-2.93,0-5.38-0.8-7.33-2.41c-3.05-2.5-4.57-7.32-4.57-14.44v-8.22c0-7.01,0.04-11.16,0.12-12.45c0.12-2,0.84-3.11,2.17-3.35
			c0.66-0.12,1.23-0.18,1.7-0.18c0.62,0,0.94-0.18,0.94-0.53c0-0.35-0.43-0.53-1.29-0.53c-0.74,0-2.02,0.03-3.84,0.09
			c-1.82,0.06-2.94,0.09-3.37,0.09c-0.47,0-1.73-0.03-3.78-0.09c-2.05-0.06-3.65-0.09-4.78-0.09c-0.86,0-1.29,0.18-1.29,0.53
			c0,0.35,0.33,0.53,1,0.53c0.98,0,1.74,0.06,2.29,0.18c1.56,0.35,2.4,1.47,2.52,3.34c0.08,1.29,0.12,5.43,0.12,12.43v8.56
			c0,7.23,1.74,12.41,5.22,15.54c2.97,2.7,7.31,4.05,13.02,4.05c4.85,0,8.91-1.41,12.2-4.22c2.23-1.91,3.77-4.57,4.63-7.97
			c0.62-2.46,0.94-5.69,0.94-9.67v-6.27c0-7,0.04-11.14,0.12-12.43c0.12-1.99,0.84-3.11,2.17-3.34c0.66-0.12,1.23-0.18,1.7-0.18
			c0.7,0,1.06-0.18,1.06-0.53C1060.59,1182.27,1060.18,1182.09,1059.36,1182.09z"/>
		<path class="st0" d="M1135.93,1201.15c3.99-3.2,5.98-6.63,5.98-10.26c0-2.19-0.76-4.05-2.29-5.57c-2.11-2.15-5.51-3.22-10.2-3.22
			c-0.59,0-1.67,0.03-3.25,0.09c-1.58,0.06-2.88,0.09-3.9,0.09c-0.23,0-1.32-0.03-3.25-0.09c-1.93-0.06-3.51-0.09-4.72-0.09
			c-0.86,0-1.29,0.18-1.29,0.53c0,0.35,0.33,0.53,1,0.53c0.98,0,1.74,0.06,2.29,0.18c1.56,0.35,2.4,1.47,2.52,3.34
			c0.08,1.29,0.12,5.43,0.12,12.43v10.32c0,6.8-0.1,10.96-0.29,12.49c-0.23,1.96-0.8,3.03-1.7,3.23c-0.59,0.04-1.17,0.1-1.76,0.18
			c-0.86,0.08-1.29,0.25-1.29,0.53c0,0.39,0.39,0.59,1.17,0.59c0.86,0,2.22-0.03,4.08-0.09c1.86-0.06,2.96-0.09,3.31-0.09
			c0.62,0,2.09,0.06,4.4,0.18c2.31,0.12,3.67,0.18,4.1,0.18c5.04,0,9.01-1.35,11.9-4.05c2.5-2.38,3.75-5.3,3.75-8.74
			c0-3.13-1.17-5.88-3.52-8.27C1141.17,1203.59,1138.79,1202.13,1135.93,1201.15z M1125.97,1185.61c0-0.43,0.08-0.72,0.23-0.88
			c0.16-0.16,0.9-0.23,2.23-0.23c2.31,0,4.16,1.02,5.57,3.05c1.17,1.76,1.76,3.77,1.76,6.04c0,2.81-0.8,4.89-2.4,6.21
			c-0.9,0.74-2.31,1.11-4.22,1.11c-1.33,0-2.25-0.06-2.76-0.18c-0.27-0.08-0.41-0.29-0.41-0.65V1185.61z M1136.81,1222.49
			c-1.25,0.98-2.76,1.47-4.52,1.47c-1.72,0-3.15-0.23-4.28-0.7c-0.9-0.35-1.47-0.9-1.7-1.64c-0.23-0.62-0.35-1.95-0.35-3.99v-13.9
			c0-0.27,0.12-0.41,0.35-0.41c0.94,0,1.78,0.02,2.52,0.06c2.07,0.12,3.69,0.59,4.87,1.41c3.79,2.66,5.69,6.55,5.69,11.67
			C1139.39,1219.15,1138.53,1221.16,1136.81,1222.49z"/>
		<path class="st0" d="M1218.25,1217.74"/>
	</g>
	<path class="st0" d="M388.65,421.79l-16.6,28.52l28.51,16.59l13.06-22.45l15.26-4.03l-10.38,17.84l-3.94,6.78l-1.97,3.39
		c-0.58,1.18-1.49,2.16-1.98,3.39c-1.66,5.09-3.34,10.15-4.68,15.42c3.92-3.76,7.49-7.73,11.1-11.68c0.83-1.03,1.24-2.31,1.98-3.39
		l1.98-3.39l3.94-6.79l14.12-24.27l53.52-14.15l6.39,3.69v87.03l-36.11-36.05l-23.11,23.15l-7.9-7.89l-34.5,34.57l34.56,34.51
		l7.89-7.9l23.15,23.12l36.03-36.09v86.69l-6.4,3.7l-53.49-14.19L425,593.62l-3.95-6.78l-1.97-3.4c-0.72-1.08-1.14-2.35-1.93-3.41
		c-3.59-3.97-7.16-7.93-11.13-11.68c1.28,5.3,2.96,10.38,4.63,15.46c0.53,1.21,1.41,2.2,1.99,3.37l1.98,3.4l3.93,6.78l10.37,17.86
		l-15.25-4.04l-13.06-22.47l-28.52,16.57l16.56,28.53l22.46-13.04l15.25,4.05l-17.84,10.37l-6.79,3.93l-3.39,1.97
		c-1.09,0.73-2.36,1.14-3.4,1.97c-3.95,3.6-7.92,7.18-11.69,11.09c5.27-1.33,10.34-3.01,15.43-4.66c1.22-0.49,2.2-1.4,3.38-1.97
		l3.4-1.96l6.78-3.95l24.29-14.1l43.85,11.62l-24.11,13.93L441.15,649l-4.59-1.23l-2.29-0.61c-0.79-0.12-1.48-0.59-2.28-0.64
		c-3.35,0.25-6.69,0.49-10.14,1.17c2.66,2.32,5.42,4.2,8.19,6.09c0.72,0.35,1.56,0.29,2.31,0.57l2.28,0.62l4.59,1.23l7.96,2.13
		l-19.74,11.4l-39.45-10.58l-12.39,46.24l46.26,12.39l10.56-39.46l19.74-11.4l-2.14,7.96l-1.22,4.58l-0.63,2.3
		c-0.11,0.79-0.59,1.48-0.61,2.28c0.27,3.35,0.51,6.69,1.14,10.14c2.25-2.68,4.13-5.44,6.04-8.21c0.39-0.71,0.31-1.55,0.62-2.29
		l0.61-2.29l1.23-4.58l4.06-15.15l24.1-13.92l-11.89,43.78l-24.37,13.96l-6.8,3.9l-3.41,1.94c-1.09,0.72-2.36,1.14-3.42,1.92
		c-3.99,3.57-7.98,7.12-11.75,11.06c5.3-1.26,10.39-2.9,15.48-4.54c1.21-0.52,2.2-1.41,3.38-1.98l3.4-1.95l6.81-3.91l17.92-10.25
		l-4.14,15.23l-22.55,12.91l16.41,28.63l28.62-16.4l-12.91-22.54l4.14-15.24l10.27,17.92l3.9,6.8l1.94,3.4
		c0.73,1.09,1.14,2.36,1.96,3.41c3.58,3.97,7.13,7.96,11.03,11.76c-1.31-5.28-2.95-10.36-4.57-15.46c-0.48-1.23-1.39-2.22-1.96-3.4
		l-1.94-3.4l-3.91-6.8l-13.96-24.37l14.5-53.41l6.41-3.7l75.41,43.54l-49.28,13.26l8.49,31.59l-10.78,2.9l12.71,47.16l47.16-12.68
		l-2.9-10.79l31.58-8.5l-13.25-49.24l75.04,43.32v7.37l-39.05,39.24l-28.08,0.07l-7.84,0.01l-3.92,0.01
		c-1.31,0.09-2.61-0.18-3.93-0.02c-5.22,1.12-10.45,2.22-15.68,3.79c5.24,1.54,10.46,2.62,15.69,3.72c1.31,0.15,2.62-0.13,3.93-0.04
		l3.93-0.02l7.84-0.02l20.65-0.05l-11.14,11.19l-25.97,0.06l0.09,33l32.99-0.09l-0.07-25.97l11.14-11.19l0.05,20.64l0.02,7.84
		l0.01,3.93c0.09,1.31-0.19,2.61,0.02,3.92c1.14,5.22,2.24,10.45,3.76,15.67c1.48-5.23,2.56-10.46,3.68-15.69
		c0.2-1.3-0.1-2.61-0.02-3.92v-3.92l-0.02-7.84l-0.08-28.09l32.01-32.17l0.01,27.84l-11.1,11.1l-3.35,3.36l-1.68,1.67
		c-0.5,0.62-1.25,0.98-1.7,1.65c-1.46,3.02-2.91,6.03-4.05,9.36c3.33-1.14,6.35-2.6,9.36-4.05c0.66-0.45,1.04-1.2,1.65-1.7
		l1.67-1.68l3.35-3.35l5.84-5.84v22.8l-28.89,28.89l33.84,33.86l33.85-33.86l-28.89-28.88l-0.01-22.79l5.83,5.83l3.35,3.35
		l1.68,1.67c0.63,0.5,0.97,1.26,1.68,1.68c3.04,1.44,6.05,2.9,9.34,4.08c-1.19-3.29-2.64-6.3-4.09-9.34
		c-0.43-0.7-1.19-1.06-1.68-1.68l-1.67-1.67l-3.35-3.36l-11.1-11.08v-27.82l31.97,32.18l-0.1,28.07l-0.03,7.84l-0.02,3.92
		c0.09,1.31-0.2,2.62-0.05,3.93c1.09,5.23,2.17,10.46,3.71,15.7c1.56-5.22,2.67-10.45,3.81-15.68c0.15-1.31-0.12-2.62-0.03-3.92
		l0.02-3.92l0.03-7.85l0.08-20.63l11.12,11.2l-0.11,25.96l32.99,0.12l0.12-33l-25.98-0.08l-11.13-11.2l20.65,0.07l7.84,0.03
		l3.92,0.01c1.31-0.09,2.61,0.2,3.93,0.01c5.23-1.11,10.47-2.2,15.69-3.66c-5.21-1.51-10.43-2.63-15.67-3.77
		c-1.31-0.2-2.61,0.08-3.92-0.02l-3.93-0.01l-7.84-0.03l-28.08-0.09l-39-39.27v-7.37l75.46-43.57l-13.13,49.31l31.6,8.42
		l-2.88,10.79l47.2,12.57l12.57-47.19l-10.78-2.88l8.42-31.61l-49.26-13.12l74.98-43.29l6.38,3.68l14.47,53.43l-13.99,24.35
		l-3.9,6.8l-1.96,3.4c-0.57,1.17-1.46,2.17-1.98,3.38c-1.65,5.09-3.3,10.17-4.55,15.47c3.94-3.76,7.5-7.75,11.07-11.73
		c0.77-1.06,1.18-2.33,1.91-3.43l1.96-3.4l3.9-6.8l10.28-17.91l4.12,15.24l-12.93,22.53l28.62,16.43l16.41-28.61l-22.52-12.94
		l-4.12-15.23l17.9,10.28l6.8,3.91l3.41,1.95c1.17,0.58,2.16,1.47,3.4,1.96c5.09,1.62,10.18,3.27,15.46,4.58
		c-3.8-3.9-7.78-7.45-11.76-11.04c-1.04-0.82-2.31-1.22-3.41-1.95l-3.4-1.95l-6.8-3.9l-24.36-13.98L880.8,647.7l24.12,13.92
		l4.07,15.15l1.23,4.59l0.61,2.29c0.3,0.75,0.23,1.57,0.57,2.31c1.9,2.76,3.77,5.53,6.09,8.18c0.68-3.45,0.93-6.79,1.17-10.13
		c-0.04-0.8-0.53-1.5-0.64-2.28l-0.61-2.29l-1.23-4.59l-2.13-7.96l19.74,11.4l10.57,39.46l46.24-12.38l-12.38-46.25l-39.46,10.58
		L919,658.29l7.95-2.14l4.58-1.22l2.29-0.63c0.74-0.29,1.58-0.22,2.3-0.61c2.76-1.91,5.53-3.79,8.2-6.05
		c-3.44-0.62-6.79-0.86-10.13-1.14c-0.81,0.02-1.5,0.5-2.3,0.61l-2.28,0.62l-4.59,1.23l-15.14,4.05l-24.1-13.9l43.84-11.58
		l24.28,14.12l6.78,3.94l3.4,1.98c1.16,0.58,2.16,1.47,3.36,2c5.08,1.67,10.15,3.36,15.45,4.65c-3.74-3.98-7.71-7.55-11.67-11.14
		c-1.06-0.79-2.32-1.21-3.41-1.94l-3.39-1.97l-6.79-3.95l-17.83-10.38l15.26-4.03l22.43,13.06l16.6-28.51l-28.51-16.59l-13.06,22.44
		l-15.26,4.03l10.37-17.84l3.95-6.78l1.98-3.39c0.57-1.18,1.48-2.16,1.97-3.39c1.65-5.09,3.34-10.16,4.68-15.43
		c-3.93,3.77-7.5,7.74-11.1,11.69c-0.83,1.03-1.24,2.3-1.99,3.39l-1.97,3.39l-3.94,6.78l-14.13,24.26l-53.51,14.14l-6.38-3.69
		v-86.84l36.05,36.05l23.13-23.13l7.9,7.9l34.54-34.54l-34.54-34.54l-7.9,7.9l-23.13-23.13l-36.05,36.06v-86.86l6.38-3.69
		l53.5,14.19l14.1,24.28l3.94,6.78l1.96,3.4c0.73,1.08,1.15,2.35,1.94,3.41c3.59,3.96,7.15,7.94,11.12,11.68
		c-1.29-5.3-2.96-10.37-4.62-15.45c-0.53-1.21-1.42-2.2-2-3.38l-1.97-3.39l-3.94-6.78l-10.36-17.85l15.25,4.05l13.05,22.46
		l28.53-16.57l-16.57-28.53l-22.46,13.04l-15.25-4.04l17.85-10.37l6.78-3.94l3.4-1.97c1.07-0.74,2.35-1.14,3.39-1.96
		c3.95-3.61,7.93-7.19,11.7-11.1c-5.27,1.33-10.35,3.01-15.43,4.66c-1.23,0.49-2.22,1.39-3.39,1.97l-3.4,1.97l-6.79,3.94
		l-24.28,14.1l-43.86-11.63l24.11-13.93l15.15,4.06l4.59,1.22l2.28,0.62c0.8,0.12,1.48,0.59,2.29,0.65
		c3.34-0.25,6.68-0.49,10.13-1.17c-2.65-2.32-5.42-4.2-8.18-6.09c-0.73-0.35-1.56-0.29-2.31-0.58l-2.29-0.61l-4.58-1.23l-7.97-2.13
		l19.74-11.4l39.47,10.57l12.38-46.24l-46.24-12.38l-10.58,39.46l-19.73,11.4l2.13-7.96l1.22-4.58l0.62-2.29
		c0.11-0.79,0.61-1.48,0.61-2.3c-0.27-3.35-0.51-6.69-1.14-10.13c-2.25,2.67-4.13,5.44-6.04,8.2c-0.39,0.72-0.32,1.56-0.63,2.29
		l-0.61,2.3l-1.22,4.58l-4.06,15.15l-24.11,13.92l11.9-43.78l24.37-13.95l6.81-3.9l3.4-1.95c1.1-0.72,2.37-1.14,3.42-1.92
		c4-3.56,7.99-7.11,11.76-11.05c-5.31,1.25-10.4,2.89-15.49,4.53c-1.21,0.52-2.2,1.4-3.38,1.98l-3.4,1.95l-6.8,3.9l-17.92,10.26
		l4.14-15.23l22.55-12.91l-16.41-28.63l-28.63,16.4l12.91,22.53l-4.14,15.24l-10.26-17.91l-3.88-6.81l-1.96-3.4
		c-0.73-1.09-1.14-2.37-1.95-3.4c-3.58-3.97-7.13-7.97-11.02-11.76c1.3,5.28,2.94,10.37,4.56,15.46c0.47,1.23,1.39,2.23,1.94,3.4
		l1.96,3.4l3.9,6.81l13.95,24.37l-14.5,53.41l-6.38,3.69l-75.26-43.46L836.22,362l-8.47-31.6l10.78-2.89l-12.65-47.17l-47.18,12.65
		l2.89,10.79l-31.59,8.47l13.22,49.25l-75.17-43.4v-7.37l39.05-39.25l28.08-0.06l7.84-0.02l3.92-0.01c1.31-0.09,2.61,0.18,3.93,0.03
		c5.22-1.13,10.45-2.23,15.68-3.8c-5.23-1.54-10.46-2.63-15.7-3.72c-1.31-0.15-2.61,0.13-3.92,0.05l-3.92,0.01l-7.86,0.02
		l-20.63,0.04l11.12-11.19l25.98-0.06l-0.07-33l-33,0.09l0.06,25.97l-11.14,11.19l-0.04-20.65l-0.02-7.85l-0.01-3.91
		c-0.11-1.31,0.19-2.62-0.01-3.93c-1.14-5.23-2.25-10.45-3.76-15.68c-1.48,5.23-2.57,10.46-3.68,15.69
		c-0.19,1.31,0.1,2.62,0.01,3.93l0.01,3.92l0.02,7.84l0.06,28.09l-32,32.17v-27.85l11.1-11.09l3.34-3.36l1.67-1.67
		c0.5-0.62,1.25-0.99,1.71-1.65c1.45-3.02,2.91-6.03,4.05-9.37c-3.34,1.14-6.35,2.6-9.35,4.05c-0.68,0.46-1.05,1.21-1.66,1.71
		l-1.67,1.67l-3.36,3.36l-5.82,5.82V235.5l28.89-28.89l-33.84-33.85l-33.85,33.85l28.89,28.88v22.8l-5.83-5.83l-3.36-3.36
		l-1.67-1.68c-0.63-0.49-0.98-1.26-1.67-1.68c-3.05-1.44-6.05-2.89-9.34-4.08c1.18,3.29,2.64,6.3,4.08,9.34
		c0.42,0.69,1.18,1.05,1.68,1.68l1.67,1.68l3.36,3.35l11.09,11.09v27.82l-31.97-32.19l0.11-28.08l0.03-7.84l0.01-3.92
		c-0.09-1.31,0.2-2.61,0.05-3.92c-1.09-5.24-2.17-10.46-3.71-15.7c-1.56,5.22-2.68,10.45-3.81,15.67c-0.15,1.31,0.12,2.62,0.03,3.92
		l-0.02,3.93l-0.03,7.84l-0.07,20.63l-11.11-11.19l0.09-25.97l-32.99-0.12l-0.12,33l25.97,0.09l11.13,11.19l-20.64-0.07l-7.85-0.03
		l-3.93-0.01c-1.31,0.09-2.6-0.2-3.92-0.02c-5.23,1.12-10.46,2.2-15.7,3.67c5.22,1.51,10.45,2.62,15.67,3.77
		c1.31,0.2,2.61-0.08,3.93,0.02l3.92,0.01l7.84,0.03l28.09,0.09l39,39.28v7.37l-75.33,43.49l13.17-49.28l-31.59-8.45l2.88-10.79
		l-47.18-12.61l-12.63,47.19l10.79,2.88l-8.45,31.6l49.26,13.16l-75.13,43.38l-6.4-3.7l-14.46-53.41l13.98-24.35l3.9-6.8l1.95-3.4
		c0.58-1.18,1.47-2.17,1.99-3.38c1.64-5.09,3.29-10.17,4.55-15.47c-3.94,3.76-7.5,7.75-11.07,11.73c-0.79,1.06-1.2,2.33-1.92,3.42
		l-1.96,3.4l-3.9,6.8l-10.28,17.9l-4.12-15.23l12.94-22.53l-28.61-16.42l-16.43,28.6l22.53,12.94l4.12,15.23l-17.9-10.28l-6.8-3.9
		l-3.41-1.95c-1.17-0.57-2.17-1.47-3.4-1.95c-5.1-1.63-10.18-3.28-15.46-4.59c3.79,3.9,7.78,7.45,11.75,11.03
		c1.05,0.82,2.32,1.22,3.41,1.95l3.41,1.95l6.8,3.91l24.36,13.98l11.86,43.79l-24.11-13.91l-4.06-15.14l-1.23-4.58l-0.62-2.29
		c-0.29-0.75-0.22-1.58-0.57-2.3c-1.89-2.77-3.77-5.53-6.09-8.19c-0.68,3.45-0.91,6.8-1.17,10.14c0.05,0.8,0.53,1.5,0.65,2.28
		l0.61,2.29l1.23,4.58l2.13,7.95l-19.74-11.39l-10.57-39.45l-46.24,12.39l12.38,46.25l39.46-10.58l19.75,11.39l-7.96,2.13
		l-4.59,1.23l-2.29,0.62c-0.73,0.3-1.57,0.22-2.3,0.61c-2.76,1.91-5.52,3.79-8.19,6.05c3.43,0.62,6.78,0.87,10.12,1.14
		c0.81-0.01,1.51-0.5,2.3-0.61l2.28-0.61l4.59-1.23l15.15-4.06l24.11,13.91l-43.87,11.59l-24.27-14.12l-6.78-3.95l-3.39-1.97
		c-1.18-0.58-2.16-1.47-3.37-2c-5.07-1.67-10.15-3.36-15.44-4.65c3.74,3.97,7.7,7.55,11.66,11.14c1.06,0.79,2.32,1.21,3.41,1.94
		l3.4,1.97l6.79,3.95l17.82,10.37l-15.25,4.03L388.65,421.79z M396.98,453.34l-11.37-6.61l6.62-11.37l11.37,6.61L396.98,453.34z
		 M431.91,555.57l-27.54-27.5l27.5-27.54l4.39,4.39l-23.11,23.15l23.16,23.11L431.91,555.57z M427.17,528.05l16.11-16.14l16.13,16.1
		l-16.11,16.14L427.17,528.05z M462.94,563.77l-16.14-16.11l19.62-19.66l-19.64-19.6l16.09-16.13l35.78,35.71L462.94,563.77z
		 M392.26,620.23l-6.61-11.36l11.36-6.6l6.61,11.37L392.26,620.23z M414.82,705.62l-27.08-7.26l7.26-27.07l27.07,7.26L414.82,705.62
		z M464.11,744.89l-6.53-11.41l11.41-6.53l6.53,11.41L464.11,744.89z M604.54,825.92l-0.04-13.15l13.15-0.03l0.03,13.15
		L604.54,825.92z M748.47,812.81l13.14,0.04L761.57,826l-13.15-0.04L748.47,812.81z M897.11,726.95l11.4,6.54l-6.54,11.41
		l-11.41-6.55L897.11,726.95z M971.17,671.26l7.27,27.08l-27.08,7.25l-7.25-27.07L971.17,671.26z M969.18,602.34l11.37,6.62
		l-6.62,11.36l-11.36-6.62L969.18,602.34z M934.29,500.31l27.52,27.52l-27.52,27.52l-4.39-4.39l23.14-23.13L929.9,504.7
		L934.29,500.31z M939.01,527.83l-16.13,16.12l-16.1-16.12l16.11-16.12L939.01,527.83z M903.26,492.08l16.12,16.12l-19.62,19.63
		l19.61,19.62l-16.11,16.11l-35.74-35.74L903.26,492.08z M973.92,435.44l6.6,11.37l-11.37,6.6l-6.59-11.37L973.92,435.44z
		 M951.36,350.06l27.08,7.25l-7.26,27.08l-27.08-7.25L951.36,350.06z M902.07,310.79l6.54,11.41l-11.4,6.53l-6.54-11.41
		L902.07,310.79z M761.64,229.74l0.04,13.14l-13.15,0.03l-0.04-13.15L761.64,229.74z M617.72,242.85l-13.14-0.04l0.04-13.15
		l13.14,0.04L617.72,242.85z M544,769.37l-10.12-37.58l6-1.61l8.5,31.6l31.58-8.5l1.62,6L544,769.37z M549.45,727.59l22.01-5.92
		l5.92,22.01l-22.01,5.93L549.45,727.59z M604.19,736.47l-22.01,5.92l-7.22-26.81l-26.79,7.22l-5.92-22.01l48.81-13.14
		L604.19,736.47z M678.13,722.1l-160.8-92.84l12.71-7.34l148.09,85.49V722.1z M702.92,849.04l-19.82,19.83l-19.82-19.83l19.82-19.81
		L702.92,849.04z M832.82,731.41L822.78,769l-37.6-10.02l1.6-5.99l31.61,8.43l8.42-31.61L832.82,731.41z M789.33,743.41l5.87-22.03
		l22.03,5.87l-5.87,22.03L789.33,743.41z M824.37,700.43l-5.87,22.03l-26.82-7.15l-7.14,26.82l-22.02-5.87l13-48.83L824.37,700.43z
		 M688.05,722.1v-16.12l146.84-84.78l13.96,8.06L688.05,722.1z M853.8,620.65l-14.38-8.3V443.29l14.38-8.3V620.65z M822.38,286.41
		L832.47,324l-6,1.61l-8.48-31.6l-31.6,8.47l-1.61-5.99L822.38,286.41z M816.88,328.18l-22.01,5.91l-5.91-22.02l22.01-5.91
		L816.88,328.18z M762.16,319.26l22.01-5.91l7.19,26.81l26.81-7.19l5.9,22.01l-48.81,13.1L762.16,319.26z M848.85,426.39
		l-13.57,7.84l-147.22-85v-15.68L848.85,426.39z M663.26,206.61l19.83-19.82l19.81,19.82l-19.81,19.82L663.26,206.61z
		 M682.28,444.98h20.8h107.6v15.56v16.88v29.95l-22.75-29.95h-84.84V637.6l19.7,13.95l-40.5,23.38l-40.5-23.38l19.7-13.95V477.42
		h-84.84l-22.75,29.95v-29.95v-16.88v-15.56h107.6H682.28z M533.53,324.13l10.06-37.6l37.61,10.05l-1.61,6l-31.61-8.45l-8.45,31.6
		L533.53,324.13z M577.02,312.16l-5.88,22.02l-22.02-5.88l5.88-22.02L577.02,312.16z M541.94,355.1l5.88-22.02l26.82,7.17l7.18-26.8
		l22.01,5.88l-13.06,48.82L541.94,355.1z M678.13,333.56v14.25l-148.46,85.71l-12.35-7.12L678.13,333.56z M512.37,435l11.9,6.87
		v171.91l-11.9,6.88V435z M469.04,328.72l-11.41-6.55l6.55-11.4l11.41,6.53L469.04,328.72z M394.98,384.41l-7.26-27.08l27.08-7.25
		l7.26,27.06L394.98,384.41z"/>
</g>
</svg>
